<?xml version="1.0" encoding="utf-8"?>
<!-- Generator: Adobe Illustrator 27.1.1, SVG Export Plug-In . SVG Version: 6.00 Build 0)  -->
<svg version="1.1" id="Layer_1" xmlns="http://www.w3.org/2000/svg" xmlns:xlink="http://www.w3.org/1999/xlink" x="0px" y="0px"
	 viewBox="0 0 758.56 152.74" style="enable-background:new 0 0 758.56 152.74;" xml:space="preserve">
<style type="text/css">
	.st0{fill:#EE312E;}
</style>
<g>
	<g>
		<polygon class="st0" points="730.68,51.18 730.68,92.84 720.88,92.84 679.36,51.33 679.36,51.18 679.2,51.18 652.53,51.18 
			647.35,51.18 647.35,51.73 647.35,71.17 647.35,116.85 666.73,116.85 666.73,71.17 672.52,71.17 718.2,116.85 750.06,116.85 
			750.06,51.18 		"/>
		<polygon class="st0" points="430.63,70.56 430.63,51.18 346.69,51.18 327.93,69.95 327.93,93.7 411.25,93.7 411.25,97.48 
			346.92,97.48 310.78,97.48 330.39,117.46 430.63,117.46 430.63,97.48 430.63,74.33 350.23,74.33 353.99,70.56 		"/>
		<path class="st0" d="M143,51.18l-28.63,28.64v37.03h11.61h14.9h50.09l7.34-9.69v9.69h19.37V51.18H143z M198.31,74.33v1.47v21.68
			h-57.43V79.82h0.16v0l9.26-9.26h48.01V74.33z"/>
		<polygon class="st0" points="91.83,64.47 91.83,69.95 64.56,97.22 55.14,97.22 27.88,69.95 27.88,64.04 8.5,50.14 8.5,73.39 
			8.5,73.39 8.5,82.98 8.5,106.91 8.5,116.85 8.5,116.85 8.5,117.03 27.88,117.03 27.88,116.85 27.88,116.85 27.88,106.91 
			27.88,102.36 27.88,96.63 48.1,116.85 71.6,116.85 91.83,96.63 91.83,116.85 91.83,116.85 91.83,117.46 111.21,117.46 
			111.21,116.85 111.21,50.58 111.21,50.57 		"/>
		<polygon class="st0" points="496.05,97.48 453.78,97.48 453.78,94.63 453.78,70.56 517.73,70.56 517.73,81.52 482.4,116.85 
			509.08,116.85 537.1,88.83 537.1,51.18 453.78,51.18 434.4,51.18 434.4,70.56 434.4,88.47 434.4,94.63 434.4,116.85 
			476.68,116.85 		"/>
		<g>
			<path class="st0" d="M601.31,116.85h42.27V97.48h-61.65L601.31,116.85z"/>
			<polygon class="st0" points="564.34,79.89 578.16,93.7 643.58,93.7 643.58,74.33 564.34,74.33 			"/>
			<polygon class="st0" points="560.25,51.18 540.27,51.18 540.27,88.81 568.9,116.85 595.58,116.85 560.38,81.66 560.25,81.66 
				560.25,81.52 560.25,75.8 560.25,74.33 560.25,70.56 564.34,70.56 643.58,70.56 643.58,51.18 			"/>
		</g>
		
			<rect x="522.2" y="100.19" transform="matrix(0.7071 -0.7071 0.7071 0.7071 75.2022 415.255)" class="st0" width="33.32" height="33.32"/>
		<path class="st0" d="M301.91,94h16.28l6.42-8.17V69.85l-19.23-18.67h-55.91l-9.26,9.26h-18.77v15.33v4.05v3.76v0.73v32.53h19.38
			v-13.64h43.61l14.35,14.25h26.68L301.91,94z M247.57,83.59v-3.82l9.21-9.21h43.62l1.88,1.88l-11.13,11.14H247.57z"/>
	</g>
	<g>
		<path class="st0" d="M223.77,12.59c-0.09,0.58-0.1,0.97-0.1,2.11v5.47c0,1.08-0.29,1.9-0.91,2.52c-0.67,0.68-1.73,1.06-3.02,1.06
			c-1.43,0-2.51-0.41-3.24-1.22c-0.38-0.42-0.56-0.75-0.87-1.54l2.56-0.88c0.28,1.02,0.67,1.39,1.51,1.39
			c0.88,0,1.29-0.43,1.29-1.34v-5.46c0-1.12-0.03-1.52-0.11-2.13H223.77z"/>
		<path class="st0" d="M288.12,18c0,3.46-2.11,5.76-5.3,5.76c-3.22,0-5.29-2.24-5.29-5.72c0-3.46,2.07-5.68,5.3-5.68
			S288.12,14.56,288.12,18z M285.39,18.02c0-2.13-0.97-3.41-2.56-3.41c-1.6,0-2.58,1.3-2.58,3.41c0,2.14,0.98,3.46,2.58,3.46
			C284.42,21.49,285.39,20.17,285.39,18.02z"/>
		<path class="st0" d="M344.29,19.95c0.05,0.47,0.14,0.71,0.34,0.97c0.31,0.39,0.87,0.62,1.54,0.62c1.01,0,1.61-0.45,1.61-1.18
			c0-0.41-0.21-0.76-0.55-0.92c-0.28-0.13-0.6-0.22-1.97-0.54c-1.21-0.26-1.63-0.42-2.11-0.76c-0.83-0.58-1.27-1.46-1.27-2.52
			c0-2.02,1.63-3.29,4.21-3.29c1.67,0,2.94,0.51,3.65,1.5c0.33,0.43,0.49,0.83,0.66,1.57l-2.78,0.3c-0.16-0.85-0.63-1.21-1.63-1.21
			c-0.8,0-1.39,0.43-1.39,1.04c0,0.37,0.2,0.64,0.62,0.84c0.26,0.12,0.26,0.12,1.81,0.43c1,0.21,1.63,0.43,2.13,0.75
			c0.95,0.59,1.42,1.47,1.42,2.68c0,0.98-0.31,1.82-0.92,2.42c-0.76,0.73-1.92,1.12-3.45,1.12c-1.12,0-2.22-0.24-2.93-0.64
			c-0.66-0.37-1.14-0.93-1.42-1.68c-0.13-0.31-0.2-0.62-0.29-1.22L344.29,19.95z"/>
		<path class="st0" d="M414.22,12.59c-0.08,0.54-0.11,1.02-0.11,1.94v7.03c0,0.85,0.03,1.3,0.11,1.94h-2.82
			c0.08-0.55,0.1-1.04,0.1-1.94v-2.55h-4.42v2.55c0,0.85,0.03,1.35,0.1,1.94h-2.82c0.08-0.54,0.11-1.02,0.11-1.94v-7.03
			c0-0.91-0.03-1.38-0.11-1.94h2.82c-0.08,0.62-0.1,1.13-0.1,1.94v2.18h4.42v-2.18c0-0.91-0.03-1.43-0.1-1.94H414.22z"/>
		<path class="st0" d="M478.35,12.59c-0.08,0.56-0.11,1.04-0.11,1.98v4.51c0,2.99-1.8,4.68-4.96,4.68c-1.63,0-2.95-0.46-3.74-1.29
			c-0.76-0.81-1.15-1.96-1.15-3.42v-4.49c0-0.91-0.03-1.48-0.11-1.98h2.83c-0.08,0.49-0.11,1.01-0.11,1.98v4.51
			c0,1.65,0.75,2.44,2.28,2.44c1.58,0,2.32-0.79,2.32-2.44v-4.51c0-0.98-0.03-1.39-0.11-1.98H478.35z"/>
		<path class="st0" d="M539.85,23.51c-0.1-0.63-0.18-0.97-0.31-1.42l-0.35-1.12h-3.74l-0.35,1.12c-0.17,0.53-0.26,0.93-0.33,1.42
			h-3.07c0.2-0.39,0.32-0.71,0.63-1.6l2.83-7.9c0.24-0.64,0.35-1.04,0.42-1.42H539c0.09,0.38,0.18,0.72,0.45,1.42l2.85,7.9
			c0.25,0.7,0.46,1.23,0.63,1.6H539.85z M537.29,14.83l-1.22,3.94h2.47L537.29,14.83z"/>
	</g>
</g>
</svg>
